<svg xmlns="http://www.w3.org/2000/svg" viewBox="0 0 750 500"><g id="freepik--background-simple--inject-170"><g style="opacity:0.4"><path d="M133.08,314.35c-39.17-38-54.23-98.19-40.19-151S148.53,66.68,199.51,47.14s110-15.15,158.85,9.2c31,15.46,57.7,38.2,86.56,57.37S506.6,149,541.24,148.24c31.32-.64,63.09-14.9,93-5.73,22.82,7,51.17,19,68.25,48.91,17.33,30.35,24,79.89,20,109.61-6.27,46.67-46.41,100.76-97.26,130.55-40.65,23.82-92.83,24.4-139.63,29.79-75.84,8.73-154.65,8.89-226.12-17.9s-134.72-84.58-151.71-159" style="fill:#e0e0e0"></path></g></g><g id="freepik--Floor--inject-170"><path d="M713.81,456.84c0,.14-146.45.26-327.08.26s-327.1-.12-327.1-.26,146.42-.26,327.1-.26S713.81,456.69,713.81,456.84Z" style="fill:#263238"></path></g><g id="freepik--Device--inject-170"><path d="M606.63,98.69H202a12.64,12.64,0,0,0-12.63,12.63V397.11A12.64,12.64,0,0,0,202,409.74H357.3s9.88,30.55-20.74,46.35h145.2s-34.57-11.85-25.68-46.35H606.63a12.64,12.64,0,0,0,12.63-12.63V111.32A12.64,12.64,0,0,0,606.63,98.69Z" style="fill:#455a64"></path><path d="M409.72,379.68c5.51,7.87-3.11,16.48-11,11a2.89,2.89,0,0,1-.67-.68c-5.49-7.86,3.11-16.46,11-11A2.67,2.67,0,0,1,409.72,379.68Z" style="fill:#263238"></path><rect x="198.51" y="115.82" width="410.77" height="243.65" rx="3.27" style="fill:#fafafa"></rect><path d="M606,360H201.79A3.79,3.79,0,0,1,198,356.2V119.1a3.79,3.79,0,0,1,3.78-3.78H606a3.78,3.78,0,0,1,3.77,3.78V356.2A3.78,3.78,0,0,1,606,360ZM201.79,116.32A2.79,2.79,0,0,0,199,119.1V356.2a2.79,2.79,0,0,0,2.78,2.78H606a2.78,2.78,0,0,0,2.77-2.78V119.1a2.78,2.78,0,0,0-2.77-2.78Z" style="fill:#fff"></path><path d="M232.2,125.23a3.28,3.28,0,1,1-3.28-3.28A3.28,3.28,0,0,1,232.2,125.23Z" style="fill:#455a64"></path><path d="M212.32,125.23A3.28,3.28,0,1,1,209,122,3.28,3.28,0,0,1,212.32,125.23Z" style="fill:#455a64"></path><path d="M221.87,125.23a3.29,3.29,0,1,1-3.29-3.28A3.28,3.28,0,0,1,221.87,125.23Z" style="fill:#455a64"></path><path d="M609.58,135.08c0,.15-92.09.26-205.67.26s-205.69-.11-205.69-.26,92.07-.26,205.69-.26S609.58,134.94,609.58,135.08Z" style="fill:#263238"></path><rect x="277.76" y="295.3" width="121.72" height="24.69" rx="12.34" style="fill:#FF725E"></rect><path d="M508.34,320a13,13,0,0,0,5-1.13,12.26,12.26,0,0,0,4.82-3.93A12.23,12.23,0,0,0,510,295.55a23.12,23.12,0,0,0-3.25-.11h-3.4l-31.31,0-181.34.08A12.08,12.08,0,0,0,280.36,314a12.35,12.35,0,0,0,4.53,4.29,12.54,12.54,0,0,0,6,1.45H351.7l81.52.06,55,.08,14.95.05,3.88,0,1.33,0L507,320l-3.88,0-14.95,0-55,.08-81.52.05-48.15,0H290.92a13,13,0,0,1-6.28-1.51,12.81,12.81,0,0,1-4.72-4.47A12.61,12.61,0,0,1,290.65,295l181.34.07,31.31,0h3.4a24,24,0,0,1,3.29.12,12.42,12.42,0,0,1,3.42,23.66,12.63,12.63,0,0,1-3.75,1C508.79,320,508.34,320,508.34,320Z" style="fill:#263238"></path><path d="M366.94,333.52v-4.45h.82v4.41c0,1.84.86,2.69,2.37,2.69s2.39-.85,2.39-2.69v-4.41h.79v4.45c0,2.23-1.19,3.38-3.18,3.38S366.94,335.75,366.94,333.52Z" style="fill:#263238"></path><path d="M381.87,331.73c0,1.65-1.2,2.65-3.18,2.65h-2.08v2.45h-.82v-7.76h2.9C380.67,329.07,381.87,330.07,381.87,331.73Zm-.83,0c0-1.24-.82-2-2.37-2h-2.06v3.88h2.06C380.22,333.66,381,333,381,331.73Z" style="fill:#263238"></path><path d="M383.64,329.07h3.16a3.89,3.89,0,1,1,0,7.76h-3.16Zm3.12,7.05a3.18,3.18,0,1,0,0-6.34h-2.3v6.34Z" style="fill:#263238"></path><path d="M397.56,334.76h-4.33l-.93,2.07h-.85l3.55-7.76h.81l3.55,7.76h-.87Zm-.3-.67-1.86-4.17-1.87,4.17Z" style="fill:#263238"></path><path d="M401.76,329.78H399v-.71h6.28v.71h-2.73v7.05h-.82Z" style="fill:#263238"></path><path d="M412.11,336.12v.71h-5.49v-7.76H412v.71h-4.51v2.76h4v.7h-4v2.88Z" style="fill:#263238"></path><path d="M416.9,333.79a10,10,0,0,1,1.29-5.19H419A11.24,11.24,0,0,0,419,339h-.76A10,10,0,0,1,416.9,333.79Z" style="fill:#FF725E"></path><path d="M426.36,334.79H424.8v2H424v-2h-4.38v-.58l4.12-5.14h.89l-4,5H424v-1.8h.77v1.8h1.56Z" style="fill:#FF725E"></path><path d="M427.09,333c0-2.47,1.3-3.95,3.09-3.95s3.11,1.48,3.11,3.95-1.31,3.95-3.11,3.95S427.09,335.42,427.09,333Zm5.38,0c0-2.07-.93-3.22-2.29-3.22s-2.28,1.15-2.28,3.22.93,3.22,2.28,3.22S432.47,335,432.47,333Z" style="fill:#FF725E"></path><path d="M434.32,331.12c0-1.27.71-2.11,1.75-2.11s1.75.83,1.75,2.11-.72,2.11-1.75,2.11S434.32,332.38,434.32,331.12Zm2.95,0c0-1-.48-1.61-1.2-1.61s-1.2.61-1.2,1.61.47,1.61,1.2,1.61S437.27,332.13,437.27,331.12Zm3.51-2.05h.65l-5.3,7.76h-.66Zm-1.7,5.71c0-1.26.72-2.11,1.75-2.11s1.75.85,1.75,2.11-.71,2.11-1.75,2.11S439.08,336,439.08,334.78Zm2.95,0c0-1-.47-1.61-1.2-1.61s-1.2.6-1.2,1.61.48,1.61,1.2,1.61S442,335.78,442,334.78Z" style="fill:#FF725E"></path><path d="M443.27,339a11.16,11.16,0,0,0,0-10.38H444A11.09,11.09,0,0,1,444,339Z" style="fill:#FF725E"></path><path d="M331.3,165.91v2.5h4.37v1.75H331.3v3.44h-2.19v-9.44h7.14v1.75Z" style="fill:#263238"></path><path d="M337.73,164.16h2.19v9.44h-2.19Z" style="fill:#263238"></path><path d="M348.17,173.6,346.35,171h-2v2.63h-2.18v-9.44h4.08c2.53,0,4.11,1.31,4.11,3.43a3.08,3.08,0,0,1-2,3l2.12,3Zm-2.05-7.66h-1.78v3.29h1.78c1.34,0,2-.62,2-1.64S347.46,165.94,346.12,165.94Z" style="fill:#263238"></path><path d="M360.66,173.6v-5.66l-2.78,4.66h-1l-2.77-4.54v5.54h-2.05v-9.44h1.81l3.53,5.87,3.48-5.87h1.8l0,9.44Z" style="fill:#263238"></path><path d="M379.17,164.16l-3.09,9.44h-2.34l-2.08-6.39-2.15,6.39h-2.33l-3.1-9.44h2.26l2.14,6.64,2.22-6.64h2l2.16,6.69,2.2-6.69Z" style="fill:#263238"></path><path d="M386.3,171.58h-4.39l-.84,2h-2.23l4.2-9.44h2.16l4.22,9.44h-2.29Zm-.69-1.66-1.5-3.61-1.5,3.61Z" style="fill:#263238"></path><path d="M396.43,173.6,394.61,171h-2v2.63h-2.19v-9.44h4.09c2.52,0,4.1,1.31,4.1,3.43a3.08,3.08,0,0,1-2,3l2.12,3Zm-2.05-7.66H392.6v3.29h1.78c1.33,0,2-.62,2-1.64S395.71,165.94,394.38,165.94Z" style="fill:#263238"></path><path d="M407.64,171.85v1.75h-7.32v-9.44h7.14v1.75h-5V168h4.38v1.7H402.5v2.19Z" style="fill:#263238"></path><path d="M421.69,164.16l-4.14,9.44h-1.34l-4.15-9.44h1.46l3.4,7.76,3.42-7.76Z" style="fill:#263238"></path><path d="M429.74,172.43v1.17h-6.85v-9.44h6.67v1.17h-5.32v2.9H429v1.15h-4.74v3.05Z" style="fill:#263238"></path><path d="M438.24,173.6l-2-2.9a5.88,5.88,0,0,1-.6,0h-2.33v2.87h-1.35v-9.44h3.68c2.46,0,3.94,1.24,3.94,3.29a3,3,0,0,1-2.08,3l2.24,3.17Zm0-6.15c0-1.35-.9-2.12-2.63-2.12h-2.29v4.25h2.29C437.3,169.58,438.2,168.8,438.2,167.45Z" style="fill:#263238"></path><path d="M440.87,172.52l.5-1.05a4.84,4.84,0,0,0,3.12,1.09c1.63,0,2.33-.63,2.33-1.45,0-2.31-5.72-.85-5.72-4.36,0-1.46,1.14-2.7,3.62-2.7a5.54,5.54,0,0,1,3,.84l-.44,1.08a4.88,4.88,0,0,0-2.59-.77c-1.61,0-2.29.67-2.29,1.5,0,2.3,5.71.86,5.71,4.33,0,1.44-1.16,2.68-3.65,2.68A5.64,5.64,0,0,1,440.87,172.52Z" style="fill:#263238"></path><path d="M450.11,164.16h1.35v9.44h-1.35Z" style="fill:#263238"></path><path d="M453.53,168.88a5,5,0,1,1,5,4.83A4.8,4.8,0,0,1,453.53,168.88Zm8.68,0a3.67,3.67,0,1,0-3.65,3.63A3.54,3.54,0,0,0,462.21,168.88Z" style="fill:#263238"></path><path d="M473.75,164.16v9.44h-1.11l-5.66-7v7h-1.35v-9.44h1.1l5.67,7v-7Z" style="fill:#263238"></path><rect x="374.6" y="203.79" width="58" height="58" style="fill:#FF725E"></rect><polygon points="397.95 213.12 397.8 234.82 389.55 234.82 403.98 254.21 417.33 234.89 409.22 234.89 409.44 213.12 397.95 213.12" style="fill:#fafafa"></polygon><rect x="429.54" y="211.5" width="16.84" height="6.09" rx="2.91" style="fill:#FF725E"></rect><rect x="429.54" y="223.5" width="16.84" height="6.09" rx="2.91" style="fill:#FF725E"></rect><rect x="429.54" y="235.5" width="16.84" height="6.09" rx="2.91" style="fill:#FF725E"></rect><rect x="429.54" y="247.51" width="16.84" height="6.09" rx="2.91" style="fill:#FF725E"></rect><rect x="362.26" y="211.5" width="16.84" height="6.09" rx="2.91" style="fill:#FF725E"></rect><rect x="362.26" y="223.5" width="16.84" height="6.09" rx="2.91" style="fill:#FF725E"></rect><rect x="362.26" y="235.5" width="16.84" height="6.09" rx="2.91" style="fill:#FF725E"></rect><rect x="362.26" y="247.51" width="16.84" height="6.09" rx="2.91" style="fill:#FF725E"></rect><rect x="376.5" y="196.79" width="16.84" height="6.09" rx="2.91" transform="translate(185.09 584.76) rotate(-90)" style="fill:#FF725E"></rect><rect x="388.51" y="196.79" width="16.84" height="6.09" rx="2.91" transform="translate(197.09 596.76) rotate(-90)" style="fill:#FF725E"></rect><rect x="400.51" y="196.79" width="16.84" height="6.09" rx="2.91" transform="translate(209.1 608.76) rotate(-90)" style="fill:#FF725E"></rect><rect x="412.52" y="196.79" width="16.84" height="6.09" rx="2.91" transform="translate(221.1 620.77) rotate(-90)" style="fill:#FF725E"></rect><rect x="376.5" y="263.45" width="16.84" height="6.09" rx="2.91" transform="translate(118.43 651.42) rotate(-90)" style="fill:#FF725E"></rect><rect x="388.51" y="263.45" width="16.84" height="6.09" rx="2.91" transform="translate(130.43 663.42) rotate(-90)" style="fill:#FF725E"></rect><rect x="400.51" y="263.45" width="16.84" height="6.09" rx="2.91" transform="translate(142.44 675.42) rotate(-90)" style="fill:#FF725E"></rect><rect x="412.52" y="263.45" width="16.84" height="6.09" rx="2.91" transform="translate(154.44 687.43) rotate(-90)" style="fill:#FF725E"></rect><path d="M353.24,237.65l-.77,0-2.23,0-8.51.06-30.49.09.15-.05-25.82,23.37-.08.07H274.28l-39.93,0,.15-.05c-11,9.12-20.21,16.79-26.71,22.19l-7.57,6.24-2,1.63-.52.41c-.12.1-.18.14-.18.13l.16-.15c.12-.12.29-.26.5-.44l2-1.69,7.48-6.34,26.59-22.34.06-.05h.09l39.93,0h11.11l-.17.07,25.87-23.32.07-.06h.08l30.49.09,8.51.06,2.23,0Z" style="fill:#FF725E"></path><path d="M303.25,215.2a.94.94,0,0,1,0,.27l0,.81c0,.76,0,1.8.05,3.11,0,2.74.05,6.62.09,11.37v.09l-.07.06-19.16,16.71-.07.06H281l-31.11-.07-9.42-.09-2.57-.05a4.77,4.77,0,0,1-.89-.05,6.22,6.22,0,0,1,.89,0l2.57-.05,9.42-.08,31.11-.08h3l-.17.07,19.24-16.62-.07.15c0-4.75.07-8.63.09-11.37,0-1.31,0-2.35.05-3.11q0-.48,0-.81A.94.94,0,0,1,303.25,215.2Z" style="fill:#FF725E"></path><path d="M291,279.21s0-.1,0-.29,0-.5,0-.84c0-.79,0-1.86-.06-3.2,0-2.83,0-6.78-.09-11.56v-.09l.07-.06,15.59-14.71,6.23-5.84.07-.06h.1l20.6.09,6,.07,1.62,0a2.44,2.44,0,0,1,.56.05,3,3,0,0,1-.56,0l-1.62.05-6,.07-20.6.09L313,243l-6.22,5.85-15.66,14.64.07-.16c0,4.78-.07,8.73-.09,11.56,0,1.34,0,2.41-.06,3.2q0,.51,0,.84A1.11,1.11,0,0,1,291,279.21Z" style="fill:#FF725E"></path><path d="M332.16,232.91l-.44,0-1.28,0-4.92.06-18,.08.13,0-23.8,21.58-.07.07h-20l-32.09,0,.15-.05L207.1,275.28l-7,5.84-1.88,1.53-.49.39-.17.12s0-.06.15-.15l.46-.42L200,281l7-5.94,24.59-20.8.07,0h.08l32.09,0h19.88l-.16.07c9-8.15,17.2-15.49,23.87-21.49l.05-.05h.08l18,.08,4.92,0,1.28,0Z" style="fill:#FF725E"></path><path d="M608.27,249.74l-.27,0-.81,0-3.17,0-12,.07H592l-.05,0-37.61-37.46.19.08h-29l-.08-.08-10.64-10.66.17.07-23.32,0,.17-.09-6.65,9.66-.05.08H485l-15.27-.08-4.08,0-1.05,0a2.45,2.45,0,0,1-.36,0l.36,0,1.05,0,4.08,0,15.27-.08-.14.07,6.59-9.7.06-.09h.11l23.32,0h.1l.07.07L525.8,212l-.18-.07h29l.08.07,37.46,37.61-.11,0,12,.07,3.17,0,.81,0A.94.94,0,0,1,608.27,249.74Z" style="fill:#FF725E"></path><path d="M608.27,254.59a1.39,1.39,0,0,1-.33,0l-1,0-3.84,0-14.3.08h-.07l0,0-37.45-37.32.18.08H544l-56.39-.08-17.09-.08-4.65-.05-1.21,0-.41,0a2.18,2.18,0,0,1,.41,0l1.21,0,4.65,0,17.09-.09L544,217h7.52l.08.07,37.32,37.45-.12-.05,14.3.08,3.84,0,1,0Z" style="fill:#FF725E"></path><path d="M608.27,228.71l-.56,0-1.65,0-6.28.06-22.65.09H577l-.07-.06L557.1,208.49l.18.08H526l-.08-.07-9.74-9.34.15.06-26.62-.09-7.49-.06-2,0-.51,0h-.17s.06,0,.17,0l.51,0,2,0,7.49-.07,26.62-.09h.1l.06.06,9.78,9.31-.17-.07h31.34l.07.07,19.82,20.43-.15-.07,22.65.09,6.28.06,1.65,0Z" style="fill:#FF725E"></path><path d="M608.27,261l-.39,0-1.14,0-4.44,0-16.46.09h-.07l0-.05L551.37,228.9l.17.07h-19l.19-.09L507,256.64l-.07.07h-.09l-27.82-.09-7.77-.06-2,0-.7,0,.7,0,2,0,7.77-.06,27.82-.09-.16.07,25.61-27.81.08-.08h19.24l.07.07L586,260.87l-.12-.05,16.46.08,4.44.05,1.14,0Z" style="fill:#FF725E"></path><path d="M553.29,225.64a2.42,2.42,0,0,1-.5,0l-1.47,0-5.52.06-19.38.1.17-.08-12.74,13.52-9.22,9.75-.07.08h-.11l-23-.09-6.65-.08-1.78,0a3.63,3.63,0,0,1-.61,0,3.63,3.63,0,0,1,.61,0l1.78,0,6.65-.08,23-.09-.18.08,9.21-9.76,12.77-13.49.07-.08h.1l19.38.1,5.52.06,1.47,0A2.42,2.42,0,0,1,553.29,225.64Z" style="fill:#FF725E"></path><path d="M304.14,215.37a.89.89,0,1,1-.89-.89A.88.88,0,0,1,304.14,215.37Z" style="fill:#FF725E"></path><path d="M354.22,237.65a.89.89,0,1,1-.89-.89A.89.89,0,0,1,354.22,237.65Z" style="fill:#FF725E"></path><path d="M237.94,247.42a.89.89,0,1,1-.89-.89A.89.89,0,0,1,237.94,247.42Z" style="fill:#FF725E"></path><circle cx="464.74" cy="211.23" r="0.89" style="fill:#FF725E"></circle><path d="M480.41,199a.89.89,0,1,1-.89-.89A.88.88,0,0,1,480.41,199Z" style="fill:#FF725E"></path><path d="M553.65,225.64a.89.89,0,1,1-.89-.89A.89.89,0,0,1,553.65,225.64Z" style="fill:#FF725E"></path><circle cx="474.09" cy="248.64" r="0.89" style="fill:#FF725E"></circle><path d="M456.08,410c0,.15-22.22.26-49.62.26s-49.62-.11-49.62-.26,22.21-.26,49.62-.26S456.08,409.87,456.08,410Z" style="fill:#263238"></path></g><g id="freepik--Character--inject-170"><path d="M70.61,336.17l18.22,61.49a6.42,6.42,0,0,0,6.16,4.6l73.92.21a6.84,6.84,0,0,0,6.84-7.2h0a6.83,6.83,0,0,0-6.83-6.47H140.66L118,325.73H78.4A8.13,8.13,0,0,0,70.61,336.17Z" style="fill:#455a64"></path><path d="M133.14,393.85c0,.14-7.53.26-16.83.26s-16.83-.12-16.83-.26,7.54-.26,16.83-.26S133.14,393.71,133.14,393.85Z" style="fill:#263238"></path><path d="M76.05,327.68c.13,0,5.16,14.68,11.24,32.88s10.88,33,10.74,33.05-5.17-14.67-11.24-32.88S75.91,327.73,76.05,327.68Z" style="fill:#263238"></path><polygon points="130.07 456.9 125.57 456.79 125.57 402.26 130.07 402.26 130.07 456.9" style="fill:#455a64"></polygon><polygon points="106.85 456.65 148.78 456.65 129.79 450.05 125.28 450.05 106.85 456.65" style="fill:#455a64"></polygon><path d="M96.25,311.63l6.93,34.66-1.23,26,46.63-7.76-1.83-22.75,0-18.82,11.43,22.16,8.91-17.2-16.3-29.53h0a27.56,27.56,0,0,0-10.66-6.91,22.28,22.28,0,0,0-6.69-1.28h0a26.7,26.7,0,0,1-16.14,0l-2.71.31-.21,0a20.63,20.63,0,0,0-18,19.39Z" style="fill:#FF725E"></path><path d="M114.55,290.51s-19.16.14-21.54,20.38l-.32,14.84,16.5-.14Z" style="fill:#FF725E"></path><path d="M160.33,316.54c0,.14-15.08.26-33.68.26S93,316.68,93,316.54s15.08-.26,33.68-.26S160.33,316.4,160.33,316.54Z" style="fill:#fafafa"></path><path d="M160.33,319.75c0,.14-15.08.26-33.68.26S93,319.89,93,319.75s15.08-.26,33.68-.26S160.33,319.6,160.33,319.75Z" style="fill:#fafafa"></path><path d="M159.25,313.88c0,.14-14.84.26-33.14.26S93,314,93,313.88s14.84-.26,33.14-.26S159.25,313.74,159.25,313.88Z" style="fill:#fafafa"></path><path d="M146.47,345.1c-.15,0-.08-8.2.14-18.31s.52-18.32.66-18.31.08,8.2-.14,18.32S146.61,345.11,146.47,345.1Z" style="fill:#263238"></path><path d="M139.92,331.8s9.06.65,10.69,3.05,4.12,9.23,3.18,9.28a2.64,2.64,0,0,1-1.63-.52l-2.48-4.4s.4,4.25-1.09,4.34-8.84,1.55-8.84,1.55Z" style="fill:#b78876"></path><path d="M92.7,321.78l0,23.37a8.88,8.88,0,0,0,10.76,8.19L140,345.81l-.08-15-31.53,6.05L107.93,321Z" style="fill:#FF725E"></path><path d="M113.55,351.47a2.47,2.47,0,0,1,.48-.14l1.42-.32,5.37-1.13,19-3.89-.19.23c0-4.71,0-9.91,0-15.39l.3.25-6.42,1.23-25.12,4.78-.27.06v-.28c.24-6.95.44-12.75.58-16.85.08-2,.15-3.58.2-4.7,0-.52,0-.93.06-1.24a2,2,0,0,1,0-.42,1.91,1.91,0,0,1,0,.42v1.24c0,1.13,0,2.72-.07,4.71-.1,4.11-.23,9.9-.4,16.85l-.26-.22,25.1-4.86,6.43-1.23.3-.06v.32c0,5.48,0,10.68,0,15.39v.19l-.19,0-19.06,3.7-5.4,1-1.43.25A3,3,0,0,1,113.55,351.47Z" style="fill:#263238"></path><path d="M134.51,290.51s.07.11.15.34a7.32,7.32,0,0,1,.28,1,8.42,8.42,0,0,1-.17,3.93,10.3,10.3,0,0,1-3.17,4.9,9.8,9.8,0,0,1-6.65,2.51,9,9,0,0,1-6.58-2.67,9.28,9.28,0,0,1-2.45-5.29,8.38,8.38,0,0,1,.46-3.91,6.84,6.84,0,0,1,.47-1c.13-.21.2-.31.22-.3s-.22.46-.49,1.34a8.6,8.6,0,0,0-.29,3.79,9,9,0,0,0,2.43,5A8.65,8.65,0,0,0,125,302.7a9.48,9.48,0,0,0,6.33-2.35,10.29,10.29,0,0,0,3.14-4.64,8.86,8.86,0,0,0,.32-3.8C134.62,291,134.46,290.52,134.51,290.51Z" style="fill:#263238"></path><path d="M136.27,347.05a12.37,12.37,0,0,1,0-2.31c.06-1.42.12-3.37.14-5.54s0-4.12-.07-5.54a10.51,10.51,0,0,1,0-2.3,9.22,9.22,0,0,1,.34,2.28c.14,1.42.24,3.39.23,5.57s-.14,4.14-.29,5.56A9,9,0,0,1,136.27,347.05Z" style="fill:#fafafa"></path><path d="M134.39,347.43a10.4,10.4,0,0,1-.07-2.29c0-1.61,0-3.46.06-5.5v-5.51a10.78,10.78,0,0,1,.08-2.29,9.19,9.19,0,0,1,.28,2.28c.1,1.41.17,3.36.16,5.52s-.1,4.11-.21,5.52A9.42,9.42,0,0,1,134.39,347.43Z" style="fill:#fafafa"></path><path d="M158.64,449.73l3.27,9.39s17.82,18.82,22.57,17.33c3.11-1-1.34-5.91-8.91-20.82l-1.91-6.28Z" style="fill:#FF725E"></path><path d="M160.32,454.48l1.25,4.21S172,469,175,471.29s6.72,5.6,9.47,5,.34-3.08.34-3.08-.74,1.83-2.07,1.43-3.79-1.45-9.49-6.56-6.61-6.32-6.61-6.32.28-2.61-.83-4S162.6,454.26,160.32,454.48Z" style="fill:#fff;opacity:0.4"></path><path d="M184.81,473.36a2.05,2.05,0,0,1-.76.89,2.89,2.89,0,0,1-3.05-.11,87.74,87.74,0,0,1-8.59-6.62c-3.22-2.75-6-5.44-7.91-7.43-.87-.91-1.62-1.71-2.28-2.39l-.61-.65c-.15-.15-.22-.22-.23-.21a1.16,1.16,0,0,0,.18.25c.19.21.38.44.58.68.51.6,1.26,1.44,2.21,2.45a102.3,102.3,0,0,0,7.88,7.52,77.4,77.4,0,0,0,8.67,6.58,3.77,3.77,0,0,0,1.85.47,2.58,2.58,0,0,0,1.36-.44,1.79,1.79,0,0,0,.6-.69A.92.92,0,0,0,184.81,473.36Z" style="fill:#263238"></path><path d="M181.91,467a2.73,2.73,0,0,0-1.31,0,6.93,6.93,0,0,0-2.86,1.34,5.39,5.39,0,0,0-1.92,2.49,2.81,2.81,0,0,0-.21,1.29s.1-.49.4-1.21a5.76,5.76,0,0,1,1.91-2.35,7.57,7.57,0,0,1,2.72-1.36C181.41,467,181.91,467.07,181.91,467Z" style="fill:#263238"></path><path d="M166.53,463.75a1.69,1.69,0,0,0,.14-.48,7.27,7.27,0,0,0,.17-1.35,7.09,7.09,0,0,0-1.18-4.3,6.74,6.74,0,0,0-3.49-2.76,5.06,5.06,0,0,0-1.34-.27,1.24,1.24,0,0,0-.5,0,11.84,11.84,0,0,1,1.77.44,6.88,6.88,0,0,1,3.32,2.73,7.37,7.37,0,0,1,1.22,4.14C166.63,463.05,166.48,463.74,166.53,463.75Z" style="fill:#263238"></path><path d="M159.81,451.26c-.07,0,.42,1.34.89,3a10.16,10.16,0,0,0,1.13,2.94c.06,0-.4-1.34-.86-3A10.72,10.72,0,0,0,159.81,451.26Z" style="fill:#263238"></path><path d="M176,457a3.6,3.6,0,0,0-2,.23,3.51,3.51,0,0,0-1.73,1.05c0,.06.79-.44,1.82-.78S176,457,176,457Z" style="fill:#263238"></path><path d="M176.48,458.57a3.2,3.2,0,0,0-3.12,1.09c.06.06.65-.41,1.5-.71S176.47,458.66,176.48,458.57Z" style="fill:#263238"></path><path d="M177.94,460.51a2.58,2.58,0,0,0-3.17,1.07,7.72,7.72,0,0,1,1.48-.85A7.15,7.15,0,0,1,177.94,460.51Z" style="fill:#263238"></path><path d="M174.83,456.38c0-.05-.74-.13-1.91-.44a16.52,16.52,0,0,1-2-.72c-.36-.17-.74-.35-1.11-.56s-.73-.52-.76-.9.42-.62.79-.57a2.34,2.34,0,0,1,1,.55c.63.49,1.18,1,1.63,1.37.89.81,1.4,1.37,1.43,1.34s-.09-.17-.31-.43-.55-.63-1-1.06a20.91,20.91,0,0,0-1.61-1.42,2.44,2.44,0,0,0-1.17-.62.92.92,0,0,0-1.11.86,1.61,1.61,0,0,0,.91,1.12c.39.21.77.4,1.14.56a12.42,12.42,0,0,0,2.05.67,10.5,10.5,0,0,0,1.43.24A2.15,2.15,0,0,0,174.83,456.38Z" style="fill:#263238"></path><path d="M174,456.26s0-.69.11-1.78a7.43,7.43,0,0,1,.34-1.88,4,4,0,0,1,.5-1c.21-.3.55-.57.86-.43s.4.57.39.93a4.29,4.29,0,0,1-.2,1.09,6.21,6.21,0,0,1-.86,1.69c-.65.88-1.18,1.33-1.14,1.36s.15-.08.39-.28a8,8,0,0,0,.91-1,6,6,0,0,0,1-1.73,4.27,4.27,0,0,0,.23-1.16,1.21,1.21,0,0,0-.56-1.2,1.06,1.06,0,0,0-1.2.52,4.18,4.18,0,0,0-.51,1.07,6.76,6.76,0,0,0-.31,2c0,.56,0,1,0,1.31A1.75,1.75,0,0,0,174,456.26Z" style="fill:#263238"></path><path d="M203.28,452.2l-.68-6.55-17.92.33,0,10.56,1.14.08c5.08.31,25.82,1.22,29.22.23C218.88,455.75,203.28,452.2,203.28,452.2Z" style="fill:#FF725E"></path><g style="opacity:0.5"><path d="M191.4,456.44a6.32,6.32,0,0,0-2.2-4,5.46,5.46,0,0,0-4.49-1.24l0,5Z" style="fill:#fff"></path></g><g style="opacity:0.5"><path d="M210.9,454.2s5.47,1.59,4.78,2.47-21.69.73-31-.13l0-.4,24.49.37S209.83,454.24,210.9,454.2Z" style="fill:#fff"></path></g><path d="M184.48,456.13l.31,0,.91.06,3.34.17c2.83.12,6.73.23,11,.26s8.21,0,11-.09l3.34-.12.91,0,.32,0a1.14,1.14,0,0,0-.32,0h-.91l-3.35,0c-2.82,0-6.72.07-11,0s-8.21-.12-11-.2l-3.35-.09-.9,0Z" style="fill:#263238"></path><path d="M209.25,456.79a7.7,7.7,0,0,1,.64-1.56A7.19,7.19,0,0,1,211,454a2.43,2.43,0,0,0-1.33,1.13A2.39,2.39,0,0,0,209.25,456.79Z" style="fill:#263238"></path><path d="M203.84,454.06s.32-.28.59-.69.45-.77.4-.8-.32.27-.59.68S203.79,454,203.84,454.06Z" style="fill:#263238"></path><path d="M202.36,453.28s.33-.15.65-.42.54-.54.5-.59-.33.15-.65.42S202.32,453.23,202.36,453.28Z" style="fill:#263238"></path><path d="M201.43,451.57a2.21,2.21,0,0,0,1,.13,2.12,2.12,0,0,0,1-.1,2.3,2.3,0,0,0-1-.12A2.2,2.2,0,0,0,201.43,451.57Z" style="fill:#263238"></path><path d="M201.12,450.37a2.73,2.73,0,0,0,2.17.17,6.41,6.41,0,0,0-1.09-.08A6.31,6.31,0,0,0,201.12,450.37Z" style="fill:#263238"></path><path d="M204.48,452.49a3.34,3.34,0,0,0,1.18,0,7.08,7.08,0,0,0,1.26-.26,3.5,3.5,0,0,0,.72-.29.62.62,0,0,0,.3-.35.47.47,0,0,0-.18-.47,2.2,2.2,0,0,0-2.68.6,2,2,0,0,0-.39.77.77.77,0,0,0,0,.32,3.29,3.29,0,0,1,.55-1,2.09,2.09,0,0,1,1-.63,1.87,1.87,0,0,1,1.41.1c.19.14.11.35-.1.47a3,3,0,0,1-.66.28,9.74,9.74,0,0,1-1.22.3C204.93,452.46,204.48,452.46,204.48,452.49Z" style="fill:#263238"></path><path d="M204.78,452.55a1.08,1.08,0,0,0,.15-.8,1.87,1.87,0,0,0-.32-.85,1.18,1.18,0,0,0-1-.6.47.47,0,0,0-.37.53,1.16,1.16,0,0,0,.2.52,3.57,3.57,0,0,0,.55.71,1.85,1.85,0,0,0,.67.47s-.23-.21-.55-.58a3.71,3.71,0,0,1-.49-.7c-.16-.24-.27-.68,0-.73s.59.26.77.49a2,2,0,0,1,.33.76A3.71,3.71,0,0,1,204.78,452.55Z" style="fill:#263238"></path><path d="M184.89,451.2s.52-.05,1.36.05a6.08,6.08,0,0,1,2.95,1.22,5.87,5.87,0,0,1,1.84,2.58c.27.77.29,1.29.34,1.29a1.12,1.12,0,0,0,0-.36,5,5,0,0,0-.19-1,5.64,5.64,0,0,0-1.85-2.7,5.81,5.81,0,0,0-3.08-1.2,5.24,5.24,0,0,0-1,0A1.07,1.07,0,0,0,184.89,451.2Z" style="fill:#263238"></path><path d="M193.73,454.7a15.46,15.46,0,0,0,5.37.09c0-.06-1.2,0-2.68,0S193.74,454.64,193.73,454.7Z" style="fill:#263238"></path><path d="M190.13,454.67c0,.05.09.25.21.52s.19.51.25.51.1-.28,0-.6S190.17,454.63,190.13,454.67Z" style="fill:#263238"></path><path d="M188.78,453c-.05,0,.07.23.26.42s.38.31.42.26-.07-.23-.26-.42S188.82,453,188.78,453Z" style="fill:#263238"></path><path d="M186.84,452.24c0,.06.26.06.53.15s.46.24.51.2-.11-.29-.44-.4S186.82,452.18,186.84,452.24Z" style="fill:#263238"></path><path d="M185.46,451.87c0,.05.08.15.23.21s.3.06.32,0-.08-.15-.23-.21S185.48,451.81,185.46,451.87Z" style="fill:#263238"></path><polygon points="184.7 449.5 203 449.55 202.6 445.65 184.68 445.98 184.7 449.5" style="opacity:0.30000000000000004"></polygon><path d="M185.18,361.19C167.45,363,144,365.44,144,365.44l3.2,28.86s34.54-9.13,34.29-8.39,1.6,61.41,1.6,61.41h20.8l.39-68.71A17.28,17.28,0,0,0,185.18,361.19Z" style="fill:#263238"></path><path d="M101.52,372.84v9c0,6.09,6.94,12.55,13,12.55h4.71c3.71,0,9.53-2.7,12.52-4.89l1.81-1.32,21.65,67.09S180,450.78,180,450s-16.78-54.95-24.53-80.09c-3.16-10.27-14.16-16.24-24.32-12.75l-1,.38C119,362,101.52,372.84,101.52,372.84Z" style="fill:#263238"></path><path d="M180,450a.86.86,0,0,1-.11-.24l-.27-.72c-.24-.63-.58-1.57-1-2.78-.83-2.43-2-6-3.35-10.33-2.76-8.74-6.47-20.85-10.5-34.25-2-6.7-3.91-13.08-5.65-18.89l-2.45-8.25-1.12-3.73a34.75,34.75,0,0,0-1.12-3.4,14,14,0,0,0-3.5-5,28.67,28.67,0,0,0-3.67-2.86c-1.06-.71-1.9-1.23-2.48-1.58l-.65-.41q-.22-.14-.21-.15l.24.11.67.36c.6.32,1.46.81,2.54,1.51a27.39,27.39,0,0,1,3.76,2.8,14.25,14.25,0,0,1,3.64,5,34.24,34.24,0,0,1,1.17,3.42c.36,1.2.75,2.44,1.14,3.73.78,2.58,1.62,5.33,2.5,8.23,1.75,5.81,3.67,12.19,5.69,18.88,4,13.37,7.69,25.48,10.35,34.29l3.2,10.37c.37,1.19.67,2.14.89,2.82l.22.73A.82.82,0,0,1,180,450Z" style="fill:#455a64"></path><path d="M185.25,377.26c.13.09-1.05,1.86-2,4.26s-1.43,4.48-1.58,4.45a11.32,11.32,0,0,1,1.1-4.65A11.06,11.06,0,0,1,185.25,377.26Z" style="fill:#455a64"></path><path d="M189.22,380.05c.06.14-1.73.92-3.59,2.4s-3.06,3-3.18,2.92a11.31,11.31,0,0,1,6.77-5.32Z" style="fill:#455a64"></path><path d="M155.47,455.22c-.13,0-6-17.91-13.06-40.09s-12.71-40.22-12.57-40.26,6,17.9,13.06,40.1S155.61,455.18,155.47,455.22Z" style="fill:#455a64"></path><path d="M116.47,265.63c-.67-1.6-2.13-4.28-2.48-6a8.8,8.8,0,0,1,.31-5.11,5.37,5.37,0,0,1,3.74-3.3,20.65,20.65,0,0,0,3.17-.4,9.31,9.31,0,0,0,2.84-2.34,9.06,9.06,0,0,1,5.19-2.36,5.29,5.29,0,0,1,3,.43,3,3,0,0,1,1.71,2.35,14.45,14.45,0,0,1,3.63-.87,4.83,4.83,0,0,1,3.5,1,2.94,2.94,0,0,1,.81,3.39,2.39,2.39,0,0,1,3.08.87,3.06,3.06,0,0,1-.2,3.33,5.75,5.75,0,0,1-3.43,2,8.42,8.42,0,0,1-3.64-.11" style="fill:#263238"></path><path d="M128.83,250.75a11.74,11.74,0,0,1,11.74,11.52c.12,5.83.16,12-.13,13.84-1.17,7.33-6.79,8.27-6.79,8.27s-.09,4.59-.1,8.95a8,8,0,0,1-8.08,7.7h0a7.61,7.61,0,0,1-8-7.25l-.34-31.16a11.74,11.74,0,0,1,11.74-11.87Z" style="fill:#b78876"></path><path d="M139,265.4a1,1,0,0,1-.91,1,.9.9,0,0,1-1-.85.94.94,0,0,1,.9-.95A.91.91,0,0,1,139,265.4Z" style="fill:#263238"></path><path d="M139.23,264.71c-.12.12-.83-.41-1.84-.4s-1.75.51-1.86.38.06-.27.38-.51a2.67,2.67,0,0,1,1.5-.46,2.48,2.48,0,0,1,1.46.47C139.18,264.43,139.29,264.65,139.23,264.71Z" style="fill:#263238"></path><path d="M128.9,265.58a1,1,0,0,1-.91.95.9.9,0,0,1-1-.85.94.94,0,0,1,.91-.95A.9.9,0,0,1,128.9,265.58Z" style="fill:#263238"></path><path d="M129.28,264.9c-.11.12-.83-.41-1.84-.4s-1.75.5-1.86.38.06-.28.39-.51a2.53,2.53,0,0,1,1.49-.46,2.41,2.41,0,0,1,1.46.47C129.23,264.62,129.34,264.84,129.28,264.9Z" style="fill:#263238"></path><path d="M133,272.4a7.25,7.25,0,0,1,1.64-.29c.26,0,.5-.08.55-.26a1.29,1.29,0,0,0-.18-.76l-.76-2a34.69,34.69,0,0,1-1.72-5.15,33,33,0,0,1,2.13,5c.25.69.5,1.35.73,2a1.48,1.48,0,0,1,.14,1,.67.67,0,0,1-.43.38,1.92,1.92,0,0,1-.44.06A6.06,6.06,0,0,1,133,272.4Z" style="fill:#263238"></path><path d="M133.65,284.38a18.63,18.63,0,0,1-9.82-2.62s2.39,5,9.73,4.35Z" style="fill:#aa6550"></path><path d="M130,273.1c.16,0,.16,1.09,1.1,1.87s2.11.66,2.12.81-.26.22-.75.23a2.69,2.69,0,0,1-1.77-.62,2.38,2.38,0,0,1-.86-1.56C129.78,273.37,129.9,273.1,130,273.1Z" style="fill:#263238"></path><path d="M129.54,260.93c-.1.28-1.11.15-2.29.29s-2.15.47-2.31.22.1-.38.49-.64a4,4,0,0,1,3.5-.39C129.37,260.59,129.59,260.8,129.54,260.93Z" style="fill:#263238"></path><path d="M138.86,261.78c-.18.23-.88,0-1.72,0s-1.54.15-1.71-.09,0-.34.35-.56a2.48,2.48,0,0,1,2.76.08C138.84,261.43,138.94,261.67,138.86,261.78Z" style="fill:#263238"></path><path d="M118,265.19c-.1-.05-4.24-1.45-4.28,2.83s4.26,3.44,4.27,3.31S118,265.19,118,265.19Z" style="fill:#b78876"></path><path d="M116.72,269.7s-.08.05-.2.11a.76.76,0,0,1-.56,0,1.86,1.86,0,0,1-.84-1.66,2.54,2.54,0,0,1,.22-1.06.89.89,0,0,1,.57-.57.38.38,0,0,1,.44.21c.05.12,0,.2.05.21s.09-.07.06-.25a.55.55,0,0,0-.17-.27.6.6,0,0,0-.41-.11,1,1,0,0,0-.78.66,2.52,2.52,0,0,0-.28,1.19,1.93,1.93,0,0,0,1.07,1.85.79.79,0,0,0,.69-.1C116.71,269.8,116.73,269.71,116.72,269.7Z" style="fill:#aa6550"></path><path d="M141.21,257.23a15.56,15.56,0,0,1-9.66-.49c-3.43-1.3-7.32-1.71-8.09-1s-.61,4.12-3.75,5.43c0,0,.87,6.4-1.71,6.43s-2-10.08-2-10.08l5.24-5.12,6.71-2.34,7.11,1.14,6.14,1.23Z" style="fill:#263238"></path><polygon points="128.9 350.56 199.78 351.24 213 313.88 161.44 314.23 149.47 347.83 128.9 348.13 128.9 350.56" style="fill:#e0e0e0"></polygon><circle cx="183.04" cy="332.94" r="2.87" transform="translate(-189.37 408.2) rotate(-72.62)" style="fill:#fff"></circle><polygon points="53.25 350.79 53.25 354.88 70.27 354.88 70.27 456.79 73.67 456.79 73.67 354.88 227.84 354.88 227.84 456.79 231.17 456.79 231.17 354.88 249.58 354.88 249.58 350.79 53.25 350.79" style="fill:#263238"></polygon></g><g id="freepik--Plant--inject-170"><path d="M652.92,374.7c4.36-2.26,9.5-2.55,14.35-1.75,2.6.43,5.32,1.21,7.09,3.17s2.11,5.4.07,7.08a6.78,6.78,0,0,1-4.47,1.13c-3.79,0-8-.71-11,1.57-1.73,1.31-2.88,3.47-4.95,4.11a4.89,4.89,0,0,1-5.38-2.39,8.38,8.38,0,0,1-.61-6.17A9.42,9.42,0,0,1,652.92,374.7Z" style="fill:#FF725E"></path><path d="M642.91,355.39c2.67,3.81,7.86,2.55,10.27.22s3.42-5.7,4.35-8.92c2.11-7.35,4.24-15.06,2.67-22.54a12.54,12.54,0,0,0-2.88-6.13,6.53,6.53,0,0,0-6.2-2.06c-2.62.69-4.24,3.25-5.42,5.69a53.8,53.8,0,0,0-5.31,23.06c0,3.71.43,7.61,2.52,10.68" style="fill:#FF725E"></path><path d="M635.58,360.86c2.9-3.44,3.45-8.46,2.16-12.77a24.57,24.57,0,0,0-7.56-11,40.79,40.79,0,0,0-13.54-8,14.39,14.39,0,0,0-6.09-1,6.36,6.36,0,0,0-5.11,3.09c-1.43,2.72-.06,6,1.41,8.7a104.74,104.74,0,0,0,8.9,13.55c2.66,3.43,5.72,6.82,9.78,8.38s8.28,1.37,10.44-1.45" style="fill:#FF725E"></path><path d="M642.73,412.91a8.51,8.51,0,0,0,.24-1.74c.13-1.26.28-2.84.46-4.72a66.52,66.52,0,0,1,1.07-6.94,53.37,53.37,0,0,1,2.52-8.19,30,30,0,0,1,4.18-7.4,15.58,15.58,0,0,1,5.28-4.4,15,15,0,0,1,4.45-1.38,8.83,8.83,0,0,0,1.73-.25,8,8,0,0,0-1.76,0,13.61,13.61,0,0,0-4.64,1.21,15.6,15.6,0,0,0-5.57,4.43,29.26,29.26,0,0,0-4.33,7.56,49.87,49.87,0,0,0-2.51,8.32,59.94,59.94,0,0,0-.92,7c-.15,2-.21,3.63-.23,4.76A8,8,0,0,0,642.73,412.91Z" style="fill:#263238"></path><path d="M643.06,409.27a3.63,3.63,0,0,0,0-.81v-2.29c0-2,0-4.89.1-8.45.18-7.13.79-14.81,2-25.63,1.12-10.17,2.63-22,4.22-29.71.34-1.75.68-3.33,1-4.71s.57-2.57.82-3.53l.54-2.24a4.19,4.19,0,0,0,.14-.79,3.44,3.44,0,0,0-.28.75c-.17.58-.4,1.31-.67,2.2s-.6,2.14-.94,3.52-.74,2.95-1.12,4.69a260.7,260.7,0,0,0-4.43,27.57c-1.19,10.85-1.73,20.72-1.77,27.87-.05,3.57,0,6.47.12,8.46.06.94.1,1.7.14,2.3A3.07,3.07,0,0,0,643.06,409.27Z" style="fill:#263238"></path><path d="M643.11,390.23a15.21,15.21,0,0,0,0-2.4,65.47,65.47,0,0,0-.74-6.51,85.75,85.75,0,0,0-2.11-9.48,77.67,77.67,0,0,0-4-11.22,59.74,59.74,0,0,0-11.64-18.13,30.54,30.54,0,0,0-2.74-2.54c-.42-.36-.79-.71-1.17-1l-1.06-.73a16,16,0,0,0-2-1.3c-.12.16,2.86,1.91,6.63,5.91a63.15,63.15,0,0,1,11.35,18.07,87.88,87.88,0,0,1,4,11.11c1,3.48,1.73,6.69,2.26,9.39s.78,4.91.95,6.44A14.53,14.53,0,0,0,643.11,390.23Z" style="fill:#263238"></path><polygon points="624.7 423.82 626.61 449.95 660.19 449.95 662.1 423.82 624.7 423.82" style="fill:#263238"></polygon><rect x="621.46" y="413.51" width="44.65" height="10.3" style="fill:#263238"></rect><polygon points="621.46 448.95 621.46 451.81 623.56 451.81 665.37 451.81 665.37 448.95 621.46 448.95" style="fill:#455a64"></polygon><polygon points="625.61 456.84 623.56 451.81 663.77 451.81 661.37 456.84 625.61 456.84" style="fill:#455a64"></polygon><path d="M661.47,432.36a.9.9,0,0,1-.15.24l-.5.66-2,2.51-.09.11-.08-.12-4.81-6.64h.28l-4.73,6.7-.15.21-.17-.2-5.61-6.68h.33l-.31.38-5,6.3-.17.2-.15-.21-4.74-6.7h.28l-5.83,6.64-.11.12-.07-.13c-.77-1.29-1.39-2.32-1.83-3.07-.19-.33-.34-.6-.47-.81a1.21,1.21,0,0,1-.14-.3,2.34,2.34,0,0,1,.19.26l.52.79,1.92,3h-.18l5.73-6.73.15-.17.13.19,4.78,6.66h-.33l5-6.3.31-.38.16-.2.16.19,5.6,6.69h-.32c1.73-2.4,3.34-4.65,4.78-6.66l.14-.2.14.2,4.7,6.72h-.17l2-2.44.54-.63A1.37,1.37,0,0,1,661.47,432.36Z" style="fill:#e0e0e0"></path><path d="M662.56,423.64c0,.12-8.41.21-18.79.21s-18.79-.09-18.79-.21,8.41-.21,18.79-.21S662.56,423.53,662.56,423.64Z" style="fill:#455a64"></path><path d="M664.26,452.09c0,.12-9.14.21-20.42.21s-20.42-.09-20.42-.21,9.14-.21,20.42-.21S664.26,452,664.26,452.09Z" style="fill:#263238"></path></g></svg>
